<?xml version="1.0" standalone="no"?>
<!DOCTYPE svg PUBLIC "-//W3C//DTD SVG 20010904//EN"
 "http://www.w3.org/TR/2001/REC-SVG-20010904/DTD/svg10.dtd">
<svg version="1.0" xmlns="http://www.w3.org/2000/svg"
 width="270.000000pt" height="300.000000pt" viewBox="0 0 270.000000 300.000000"
 preserveAspectRatio="xMidYMid meet">

<g transform="translate(0.000000,300.000000) scale(0.100000,-0.100000)"
fill="#000000" stroke="none">
<path d="M1262 2447 l-2 -548 -39 -57 c-62 -90 -108 -138 -119 -127 -5 6 -20
42 -32 80 -35 107 -176 376 -278 532 -51 77 -92 145 -92 152 0 7 -4 10 -9 6
-5 -3 -38 10 -74 30 -35 19 -67 35 -71 35 -4 0 16 -27 44 -60 77 -93 158 -221
180 -283 34 -97 22 -183 -31 -220 -18 -14 -14 -15 50 -19 39 -2 76 -9 83 -16
9 -9 -8 -12 -81 -12 -77 0 -92 2 -88 14 4 9 1 13 -7 10 -7 -3 -21 5 -32 17
-19 21 -19 21 9 44 15 13 27 31 27 40 0 13 -21 15 -150 15 l-149 0 -4 133 c-2
91 -3 64 -5 -89 l-2 -221 50 -105 49 -105 83 -17 c46 -9 152 -22 236 -28 180
-14 432 -1 680 35 144 21 152 22 152 5 0 -11 -7 -18 -18 -18 -25 0 -34 -11
-22 -25 16 -19 1 -45 -25 -45 -27 0 -40 27 -23 47 12 15 14 15 -65 -2 -24 -5
-27 -8 -17 -20 18 -21 4 -47 -22 -43 -26 3 -37 36 -16 50 9 7 2 8 -21 4 -18
-3 -48 -6 -65 -6 -26 -1 -28 -2 -13 -11 22 -13 22 -45 1 -53 -22 -8 -47 13
-41 36 4 15 -1 18 -35 18 -37 0 -40 -2 -34 -24 8 -31 -18 -55 -42 -39 -10 6
-16 20 -15 32 2 19 -2 21 -42 21 -43 0 -44 -1 -33 -20 11 -16 10 -23 -5 -37
-16 -16 -18 -16 -34 0 -15 15 -16 20 -4 39 12 19 11 20 -11 15 -12 -4 -36 -7
-51 -7 -19 0 -27 -4 -24 -12 6 -18 -11 -48 -27 -48 -36 0 -43 55 -8 62 10 2
-44 7 -118 11 -74 4 -168 13 -209 22 -41 8 -77 12 -80 10 -3 -3 7 -30 22 -60
21 -42 32 -55 49 -55 33 0 42 -9 71 -67 15 -28 31 -54 36 -58 6 -3 74 -11 152
-17 135 -11 377 -3 609 19 l65 6 80 81 c45 45 86 95 93 111 9 22 28 37 70 57
67 31 132 85 162 133 29 47 21 67 -9 23 -33 -48 -83 -80 -131 -84 -58 -5 -52
20 12 51 28 14 57 25 62 25 11 0 76 57 76 66 0 7 -20 -5 -42 -23 -15 -13 -18
-12 -34 12 -13 20 -14 29 -5 34 15 10 -3 61 -21 61 -31 -1 -40 -17 -33 -58 12
-70 3 -82 -63 -80 -56 1 -102 -13 -102 -33 0 -6 7 -6 19 1 25 13 31 13 31 -3
0 -7 -9 -18 -20 -25 -14 -9 -20 -9 -20 -1 0 8 -4 8 -14 0 -11 -10 -19 -5 -40
22 -33 43 -33 52 4 67 17 7 33 17 36 22 4 5 -9 2 -27 -8 -19 -9 -83 -28 -143
-41 -115 -25 -122 -29 -152 -95 -25 -56 -44 -49 -44 15 l0 53 74 52 c95 66
111 104 111 263 0 105 -1 108 -41 187 l-40 79 19 24 c25 32 19 101 -18 186
-27 61 -27 61 -57 51 -22 -8 -27 -15 -22 -27 16 -38 16 -134 -1 -196 -16 -61
-16 -64 3 -102 35 -67 45 -151 28 -232 -8 -38 -24 -89 -35 -113 l-19 -43 1
465 2 464 42 29 c42 30 82 38 116 22 31 -13 18 46 -14 64 -33 18 -69 9 -113
-30 l-35 -30 -4 43 c-2 24 -4 -204 -5 -505z m-752 -385 c0 -5 -9 -17 -20 -27
-19 -17 -21 -17 -40 0 -29 27 -25 35 20 35 22 0 40 -4 40 -8z m160 0 c0 -5 -9
-17 -20 -27 -19 -17 -21 -17 -40 0 -29 27 -25 35 20 35 22 0 40 -4 40 -8z
m-235 -42 c17 -19 17 -21 0 -40 -27 -29 -35 -25 -35 20 0 45 8 49 35 20z m105
-20 c0 -45 -8 -49 -35 -20 -17 19 -17 21 0 40 27 29 35 25 35 -20z m55 20 c17
-19 17 -21 0 -40 -27 -29 -35 -25 -35 20 0 45 8 49 35 20z m-95 -65 l23 -25
-53 0 -53 0 23 25 c13 14 26 25 30 25 4 0 17 -11 30 -25z m152 8 c28 -25 22
-33 -29 -33 l-46 0 23 25 c28 30 28 30 52 8z m327 -93 c43 -45 101 -131 117
-172 5 -16 -1 -18 -58 -18 l-64 0 -42 123 c-23 67 -42 126 -42 130 0 15 44
-16 89 -63z m-139 20 c-13 -25 -22 -25 -51 0 l-24 19 43 1 c40 0 42 -1 32 -20z
m-40 -46 c0 -6 -7 -17 -15 -24 -12 -10 -16 -8 -25 15 -18 47 -14 58 15 38 13
-10 25 -23 25 -29z m86 2 c5 -23 4 -27 -7 -21 -35 20 -39 27 -28 47 13 24 25
15 35 -26z m-26 -36 l25 -20 -42 0 c-44 0 -52 7 -31 28 16 16 18 15 48 -8z
m400 -74 c0 -37 -4 -45 -22 -50 -35 -9 -118 -7 -118 3 0 9 119 91 133 91 4 0
7 -20 7 -44z m475 -7 c12 -19 -4 -22 -47 -10 -42 13 -42 13 -18 26 25 13 52 7
65 -16z"/>
<path d="M1427 2603 c160 -216 232 -405 193 -508 -10 -26 -10 -26 22 -18 61
15 160 8 210 -14 l48 -22 -16 32 c-33 64 -108 174 -182 267 -78 97 -318 350
-333 350 -4 0 22 -39 58 -87z"/>
<path d="M730 2630 c6 -12 8 -30 5 -40 -6 -19 -1 -20 97 -20 57 0 108 4 113 9
6 6 39 12 75 14 48 2 59 5 43 11 -32 11 -29 21 10 34 25 8 -12 10 -161 11
-191 1 -193 1 -182 -19z"/>
<path d="M2030 2357 c-28 -10 -36 -18 -38 -41 -3 -28 -2 -29 14 -15 10 8 15 9
11 2 -6 -9 4 -8 34 2 53 19 78 19 85 0 8 -19 73 -19 129 0 l40 14 -40 -7 c-81
-12 -90 -10 -93 26 -3 32 -4 32 -55 31 -29 0 -68 -5 -87 -12z m-10 -27 c0 -5
-2 -10 -4 -10 -3 0 -8 5 -11 10 -3 6 -1 10 4 10 6 0 11 -4 11 -10z"/>
<path d="M425 2210 l0 -90 90 0 89 0 -37 38 c-20 21 -37 42 -37 47 0 5 19 29
42 52 l42 43 -95 0 -94 0 0 -90z"/>
<path d="M2022 2250 c-19 -8 -21 -14 -15 -37 13 -46 7 -109 -14 -153 -11 -22
-18 -40 -14 -39 3 0 26 10 51 22 47 23 57 42 59 110 1 39 -22 107 -36 106 -4
0 -18 -4 -31 -9z"/>
<path d="M1908 2029 c-21 -11 -38 -22 -38 -24 0 -3 18 4 40 15 22 11 40 23 40
25 0 7 0 7 -42 -16z"/>
<path d="M1758 1947 c-54 -29 -101 -57 -105 -62 -10 -10 188 94 202 106 17 16
1 9 -97 -44z"/>
<path d="M576 1461 c15 -36 30 -51 52 -51 15 0 15 3 -2 44 -9 22 -22 35 -39
38 l-26 5 15 -36z"/>
<path d="M620 1271 l0 -60 66 -21 c78 -24 170 -26 221 -5 33 14 40 14 90 -5
68 -25 128 -25 200 0 52 18 60 19 100 5 44 -15 139 -20 181 -9 19 6 22 13 22
61 0 49 -2 54 -17 48 -68 -28 -125 -23 -189 15 l-37 21 -63 -32 c-82 -41 -144
-38 -203 9 l-39 31 -27 -21 c-66 -52 -175 -53 -262 -3 l-43 26 0 -60z"/>
<path d="M1366 1093 c-63 -43 -138 -46 -210 -8 l-48 25 -64 -31 c-56 -28 -71
-31 -116 -26 -36 5 -63 15 -88 35 l-36 29 -49 -28 c-40 -23 -62 -29 -113 -29
-34 0 -78 7 -98 15 l-35 14 3 -57 3 -57 55 -12 c61 -14 134 -9 192 14 32 13
40 13 69 -3 54 -28 144 -30 218 -5 61 21 65 21 105 5 57 -23 159 -22 215 2 44
19 45 19 100 1 55 -19 162 -20 190 -3 6 4 11 31 11 61 l0 54 -37 -16 c-54 -22
-125 -13 -177 24 l-42 30 -48 -34z"/>
<path d="M410 650 l0 -150 35 0 35 0 0 69 c0 39 4 72 8 75 4 2 34 -28 67 -69
52 -65 63 -74 101 -80 58 -8 91 2 98 31 6 23 10 24 81 24 70 0 75 -1 81 -24 4
-19 14 -24 48 -28 23 -3 56 -3 74 0 l32 4 0 64 0 64 75 0 75 0 0 -64 0 -64 34
-4 c19 -2 52 -2 74 0 33 3 41 9 46 28 6 23 11 24 81 24 70 0 75 -1 81 -24 7
-28 55 -42 107 -30 68 14 97 67 97 179 l0 75 55 0 55 0 0 -125 0 -125 40 0 40
0 0 150 0 150 -130 0 -130 0 0 -83 c0 -115 -17 -166 -56 -167 -6 0 -35 56 -64
125 l-53 125 -42 0 -42 0 -53 -125 c-29 -69 -57 -128 -62 -131 -4 -3 -8 54 -8
125 l0 131 -35 0 -35 0 0 -55 0 -55 -75 0 -75 0 0 55 0 55 -35 0 -35 0 0 -132
c0 -80 -4 -128 -9 -123 -5 6 -32 64 -59 130 l-51 120 -44 3 -44 3 -53 -128
c-29 -70 -55 -130 -58 -133 -5 -6 -112 112 -112 125 0 5 28 38 62 72 l62 63
-41 0 c-38 0 -46 -5 -101 -65 -32 -35 -62 -62 -66 -58 -3 3 -6 33 -6 65 l0 58
-35 0 -35 0 0 -150z m459 8 l21 -58 -50 0 c-36 0 -50 4 -50 14 0 24 43 117 50
109 4 -4 17 -34 29 -65z m626 -30 c7 -28 7 -28 -44 -28 l-51 0 21 53 c12 28
24 59 27 67 6 15 34 -39 47 -92z"/>
<path d="M400 245 l0 -205 40 0 40 0 0 152 c0 84 4 148 8 142 5 -5 16 -34 24
-64 71 -239 68 -231 96 -228 25 3 29 12 72 151 l45 148 3 -150 3 -151 39 0 40
0 0 205 0 206 -56 -3 -57 -3 -40 -135 c-22 -74 -42 -137 -44 -140 -8 -9 -21
24 -58 151 l-38 129 -58 0 -59 0 0 -205z"/>
<path d="M880 376 c0 -68 2 -76 19 -76 12 0 35 21 58 52 l38 53 3 -53 c2 -37
7 -52 18 -52 11 0 14 16 14 75 0 65 -2 75 -17 75 -10 0 -34 -23 -53 -52 l-35
-52 -5 49 c-4 37 -10 51 -22 53 -16 3 -18 -6 -18 -72z"/>
<path d="M1100 375 c0 -60 3 -75 15 -75 11 0 15 12 15 48 0 27 3 52 7 56 4 3
17 -17 29 -46 29 -69 46 -72 69 -11 26 72 35 74 35 10 0 -44 3 -57 15 -57 12
0 15 15 15 75 0 74 0 75 -26 75 -16 0 -28 -7 -30 -17 -3 -10 -13 -36 -23 -58
l-19 -40 -26 58 c-21 47 -30 57 -51 57 -24 0 -25 -2 -25 -75z"/>
<path d="M1370 375 l0 -75 70 0 c40 0 70 4 70 10 0 6 -22 10 -50 10 -43 0 -50
3 -50 20 0 17 7 20 45 20 25 0 45 5 45 10 0 6 -20 10 -45 10 -41 0 -45 2 -45
25 0 23 3 25 50 25 28 0 50 5 50 10 0 6 -30 10 -70 10 l-70 0 0 -75z"/>
<path d="M1570 375 c0 -60 3 -75 15 -75 10 0 15 10 15 30 0 28 3 30 35 30 32
0 35 -2 35 -30 0 -23 4 -30 20 -30 18 0 20 7 20 75 0 68 -2 75 -20 75 -16 0
-20 -7 -20 -30 0 -28 -3 -30 -35 -30 -32 0 -35 2 -35 30 0 20 -5 30 -15 30
-12 0 -15 -15 -15 -75z"/>
<path d="M1780 375 c0 -66 2 -75 19 -75 11 0 32 20 53 50 19 27 38 47 41 43 4
-3 7 -26 7 -50 0 -32 4 -43 15 -43 12 0 15 15 15 75 0 66 -2 75 -18 75 -11 0
-33 -20 -53 -50 -19 -27 -37 -50 -41 -50 -5 0 -8 23 -8 50 0 38 -4 50 -15 50
-12 0 -15 -15 -15 -75z"/>
<path d="M880 210 c-38 -38 -38 -102 0 -140 14 -14 34 -20 66 -20 57 0 82 13
99 53 30 71 -13 127 -96 127 -35 0 -54 -5 -69 -20z m108 -16 c43 -30 17 -124
-35 -124 -26 0 -40 12 -52 43 -27 70 29 122 87 81z"/>
<path d="M1105 205 c-36 -35 -35 -105 1 -134 40 -32 107 -29 142 6 24 25 25
28 9 31 -11 2 -29 -6 -41 -17 -12 -12 -30 -21 -39 -21 -27 0 -57 37 -57 70 0
55 59 89 94 55 16 -16 46 -20 46 -7 0 22 -39 42 -84 42 -36 0 -52 -5 -71 -25z"/>
<path d="M1290 140 c0 -83 1 -90 20 -90 17 0 20 7 20 45 0 25 3 45 8 45 4 0
25 -21 47 -46 28 -32 47 -45 60 -43 18 4 15 10 -22 49 l-42 45 42 43 c41 41
41 42 15 42 -19 0 -35 -12 -58 -40 -36 -46 -50 -44 -50 6 0 27 -4 34 -20 34
-19 0 -20 -7 -20 -90z"/>
<path d="M1490 140 l0 -90 63 0 c95 0 140 45 85 85 -21 15 -22 17 -5 26 23 13
22 46 -2 59 -11 5 -47 10 -80 10 l-61 0 0 -90z m115 40 c0 -10 -12 -16 -37
-18 -33 -3 -38 0 -38 18 0 18 5 21 38 18 25 -2 37 -8 37 -18z m10 -75 c0 -16
-8 -21 -42 -23 -40 -3 -43 -2 -43 23 0 25 3 26 43 23 34 -2 42 -7 42 -23z"/>
<path d="M1690 140 l0 -90 59 0 c87 0 111 12 111 54 0 42 -10 49 -75 56 -48 5
-50 6 -53 38 -2 24 -8 32 -23 32 -17 0 -19 -8 -19 -90z m115 -14 c29 -21 12
-46 -30 -46 -37 0 -52 17 -41 45 7 19 46 19 71 1z"/>
<path d="M1890 140 c0 -83 1 -90 20 -90 19 0 20 7 20 90 0 83 -1 90 -20 90
-19 0 -20 -7 -20 -90z"/>
</g>
</svg>
